PathFileType	4	(X/Y/Z)	C:/Users/opensim2020/Desktop/walking_exp_matlab/subject06_walking18_straight_04.trc																																																																																																																																											
DataRate	CameraRate	NumFrames	NumMarkers	Units	OrigDataRate	OrigDataStartFrame	OrigNumFrames																																																																																																																																							
100	100	5	47	mm	100	4776	409																																																																																																																																							
Frame#	Time	LFHD			RFHD			LBHD			RBHD			C7			T10			CLAV			STRN			RBAK			LSHO			LUPA			LELB			LFRM			LWRA			LWRB			LFIN			RSHO			RUPA			RELB			RFRM			RWRA			RWRB			RFIN			LASI			RASI			LPSI			RPSI			LTHI			LKNE			LTIB			LANK			LHEE			LTOE			RTHI			RKNE			RTIB			RANK			RHEE			RTOE			*39			*40			*41			*42			*43			*44			*45			*46		
		X1	Y1	Z1	X2	Y2	Z2	X3	Y3	Z3	X4	Y4	Z4	X5	Y5	Z5	X6	Y6	Z6	X7	Y7	Z7	X8	Y8	Z8	X9	Y9	Z9	X10	Y10	Z10	X11	Y11	Z11	X12	Y12	Z12	X13	Y13	Z13	X14	Y14	Z14	X15	Y15	Z15	X16	Y16	Z16	X17	Y17	Z17	X18	Y18	Z18	X19	Y19	Z19	X20	Y20	Z20	X21	Y21	Z21	X22	Y22	Z22	X23	Y23	Z23	X24	Y24	Z24	X25	Y25	Z25	X26	Y26	Z26	X27	Y27	Z27	X28	Y28	Z28	X29	Y29	Z29	X30	Y30	Z30	X31	Y31	Z31	X32	Y32	Z32	X33	Y33	Z33	X34	Y34	Z34	X35	Y35	Z35	X36	Y36	Z36	X37	Y37	Z37	X38	Y38	Z38	X39	Y39	Z39	X40	Y40	Z40	X41	Y41	Z41	X42	Y42	Z42	X43	Y43	Z43	X44	Y44	Z44	X45	Y45	Z45	X46	Y46	Z46	X47	Y47	Z47
																																																																																																																																														
256	2.55	308.6759	1665.31689	904.16199	307.01077	1655.07629	1035.5885	174.67841	1613.15466	902.29462	175.45726	1608.06653	1031.39856	170.34927	1455.25232	958.69135	136.64842	1125.6355	965.52124	278.66846	1377.87805	962.28119	318.30273	1201.85791	959.12799	95.35088	1284.66907	1038.14197	229.20407	1407.25732	799.35779	257.63361	1207.02344	726.19434	282.03232	1096.31201	713.4397	373.80121	975.66901	704.55981	481.31247	914.56927	756.52942	433.55423	873.0271	725.00677	510.98953	827.04901	730.80865	231.01427	1410.78174	1122.43945	190.9066	1213.27539	1210.71338	199.16508	1092.12341	1225.71008	220.55179	974.49188	1246.24463	292.12247	839.8045	1220.73242	236.069	838.06537	1257.93945	277.71603	764.61981	1263.4248	317.93048	960.64252	870.39502	304.9545	973.89752	1090.77258	160.6666	992.97681	888.56104	154.41589	997.39575	1056.64282	235.48595	647.31555	819.36627	217.09451	484.1579	841.90472	160.38907	233.39842	857.35651	140.16397	63.45261	907.49377	96.72975	51.53408	951.16248	284.67438	35.51293	918.30817	302.06656	645.52649	1158.99182	348.12961	527.7525	1133.60303	326.52838	266.63181	1136.57397	328.04602	79.10303	1099.94165	292.72021	52.20294	1052.71252	481.87946	44.14597	1103.2793	208.58658	1705.59961	961.79523	NaN	NaN	NaN	NaN	NaN	NaN	NaN	NaN	NaN	NaN	NaN	NaN	NaN	NaN	NaN	NaN	NaN	NaN	NaN	NaN	NaN
257	2.56	314.31104	1664.81995	904.48138	312.59058	1654.41028	1035.94629	180.19485	1612.76709	902.59906	180.93225	1607.53162	1031.58337	176.00101	1454.74414	958.56433	142.08592	1125.06384	965.62573	284.13406	1377.35168	962.31519	323.6481	1201.30212	958.95227	100.82079	1284.21533	1038.30969	234.65758	1406.85608	799.41138	262.43134	1206.39026	726.6377	287.04507	1095.72717	713.89142	380.15103	976.14868	705.9436	488.54199	917.02759	758.42352	441.15738	874.58337	727.73517	519.42078	829.58478	733.87854	236.67699	1410.12549	1122.53088	196.52718	1212.6554	1210.88757	204.4704	1091.51428	1225.84229	225.47652	973.83954	1246.52002	296.55978	838.8465	1221.08057	240.48013	837.38354	1258.38684	281.88507	763.73627	1263.82629	323.06616	959.99377	870.02527	310.56381	973.23193	1090.51831	165.67729	992.55658	888.30804	159.89905	996.7572	1056.50781	239.74269	646.84045	819.45721	220.51376	483.68906	841.84015	162.03632	233.21216	857.25464	140.37236	63.47543	907.5603	96.87611	51.72004	951.19635	284.78455	35.357	918.32837	306.9371	644.60712	1158.89404	352.93527	527.19592	1132.93884	338.8118	265.64526	1136.55261	347.00702	77.95036	1099.83032	312.91669	50.02151	1053.18506	501.91818	45.83107	1101.67029	214.23119	1705.07446	962.16864	NaN	NaN	NaN	NaN	NaN	NaN	NaN	NaN	NaN	NaN	NaN	NaN	NaN	NaN	NaN	NaN	NaN	NaN	NaN	NaN	NaN
258	2.57	319.93671	1664.20398	904.89148	318.28732	1653.72437	1036.29761	185.77135	1612.33032	902.94287	186.58138	1606.95166	1031.91528	181.36388	1454.1333	959.00519	147.56258	1124.42651	965.75665	289.63251	1376.7489	962.38123	329.10269	1200.71167	958.82227	106.34795	1283.52502	1038.52173	240.04445	1406.4165	799.53986	267.72165	1205.84143	726.9187	292.40259	1095.18347	714.44391	386.50357	976.46979	707.29584	495.53259	919.33124	760.37134	448.71719	875.92029	730.17078	527.44556	831.83783	736.91809	242.41533	1409.37	1122.6825	202.36264	1211.99536	1211.22034	209.76555	1090.84241	1226.04724	230.51137	973.10846	1246.76282	301.11557	837.84839	1221.44165	245.09735	836.62433	1258.78369	286.31586	762.83447	1264.16577	328.27072	959.33112	869.63635	316.26657	972.55286	1090.25928	170.92374	991.88013	888.28424	165.5224	996.09436	1056.47034	244.03307	646.31641	819.02502	223.87486	483.1908	841.81543	163.60925	233.03676	857.10675	140.60658	63.5387	907.6283	97.01115	51.92926	951.26324	284.89267	35.24619	918.36005	312.02686	643.91302	1158.98352	357.69223	526.62921	1132.22095	350.76172	264.78503	1136.49207	365.16556	77.35102	1100.01294	331.67999	48.94255	1053.22693	521.255	48.06723	1100.29187	219.91589	1704.54346	962.56848	NaN	NaN	NaN	NaN	NaN	NaN	NaN	NaN	NaN	NaN	NaN	NaN	NaN	NaN	NaN	NaN	NaN	NaN	NaN	NaN	NaN
259	2.58	325.65848	1663.56763	905.28308	323.9162	1652.97375	1036.71143	191.43681	1611.87915	903.37885	192.18956	1606.41125	1032.39905	186.85719	1453.61792	959.32062	153.10669	1123.77039	965.84619	295.18161	1376.13477	962.55597	334.57825	1200.09375	958.78137	111.98907	1282.82739	1038.73291	245.5511	1405.91199	799.71698	273.31982	1205.41309	727.11542	297.35898	1094.5459	714.94519	392.70267	976.75189	708.74274	502.36148	921.41016	762.3175	456.09198	877.16113	732.70691	535.36865	833.92572	739.86224	248.08809	1408.62085	1122.9248	207.86295	1211.2644	1211.34448	215.15868	1090.10864	1226.28967	235.52287	972.3172	1247.06995	305.87781	836.89282	1221.85522	249.79277	835.7951	1259.17407	290.7406	761.86334	1264.67908	333.51526	958.67169	869.25824	322.26328	971.86627	1089.93567	176.23755	991.26825	888.33081	171.33623	995.40192	1056.5481	248.25841	645.7674	818.95355	227.34319	482.71014	841.75995	165.11499	232.95264	856.91449	140.85103	63.6209	907.69464	97.11918	52.16995	951.32269	284.95551	35.09488	918.36646	317.32715	643.16083	1159.08875	362.55377	526.03076	1131.38525	362.39929	263.98441	1136.44873	382.38226	77.13705	1100.18982	349.17767	48.43005	1053.62256	539.82825	50.83279	1099.29102	225.7191	1703.97241	963.02802	NaN	NaN	NaN	NaN	NaN	NaN	NaN	NaN	NaN	NaN	NaN	NaN	NaN	NaN	NaN	NaN	NaN	NaN	NaN	NaN	NaN
260	2.59	331.45953	1662.90564	905.7735	329.68118	1652.19153	1037.13843	197.07861	1611.51318	904.00775	197.43109	1605.87842	1033.172	192.48267	1453.02295	959.72546	158.59854	1123.13538	966.19977	300.79092	1375.46814	962.75031	340.16605	1199.45264	958.74384	117.65527	1282.06689	1038.95215	251.13774	1405.38086	799.97614	278.58185	1204.72791	727.66675	302.67029	1093.90894	715.55566	398.94592	977.03217	710.09906	509.09454	923.31915	764.27313	463.31406	878.34479	734.89368	542.80713	835.75189	742.91486	253.73189	1407.80688	1123.23438	213.17525	1210.38184	1211.41443	220.56563	1089.3114	1226.54944	240.64894	971.48981	1247.41455	310.65616	835.85333	1222.30908	254.60741	834.94275	1259.54834	295.38208	760.94324	1265.16101	338.79755	957.97833	868.89404	328.306	971.10748	1089.67004	181.46631	990.72406	888.38971	177.21207	994.73859	1056.69495	252.53133	645.27576	818.90289	230.78795	482.24564	841.75562	166.66341	232.80368	856.64514	141.08629	63.68899	907.74933	98.05622	51.87174	951.09619	285.24625	35.04049	918.25702	322.88214	642.42285	1159.0885	367.26157	525.31946	1130.87097	373.6705	263.31226	1136.34875	399.72888	76.98366	1099.99646	366.92194	47.81077	1053.6228	557.78967	54.06301	1098.54321	231.53131	1703.37964	963.52777	NaN	NaN	NaN	NaN	NaN	NaN	NaN	NaN	NaN	NaN	NaN	NaN	NaN	NaN	NaN	NaN	NaN	NaN	NaN	NaN	NaN
